<?xml version="1.0" encoding="utf-8"?>
<!-- Generator: Adobe Illustrator 25.4.1, SVG Export Plug-In . SVG Version: 6.00 Build 0)  -->
<svg version="1.1" id="OBJECTS" xmlns="http://www.w3.org/2000/svg" xmlns:xlink="http://www.w3.org/1999/xlink" x="0px" y="0px"
	 viewBox="0 0 433 130.6" style="enable-background:new 0 0 433 130.6;" xml:space="preserve">
<style type="text/css">
	.st0{fill:#E84F0E;}
	.st1{fill:#173963;}
</style>
<g>
	<g>
		<path class="st0" d="M77.2,56.8c7.5,1.6,12.2,8.7,10.6,16.2c-1.6,7.5-8.7,12.2-16.2,10.7c-7.3-1.6-12.2-8.7-10.8-16.1
			c1.4-7.3,8.6-12.2,15.9-10.8C77,56.7,77,56.7,77.2,56.8"/>
		<path class="st0" d="M48.8,78.7c4.4,1,7.2,5.2,6.5,9.6c-0.9,4.4-5.2,7.2-9.6,6.3c-4.4-0.9-7.2-5.1-6.5-9.6
			C40.2,80.6,44.4,77.8,48.8,78.7"/>
		<path class="st0" d="M59.9,39.7c3,0.7,4.9,3.5,4.4,6.5c-0.7,3-3.5,4.9-6.5,4.4c-3-0.7-4.9-3.5-4.4-6.5l0,0
			C54,41.1,57,39.2,59.9,39.7L59.9,39.7"/>
		<path class="st0" d="M50.3,11.1c5.6,4.4,6.6,12.2,2.3,18c-4.4,5.8-12.2,6.6-18,2.3C29,27,28,19.1,32.3,13.5
			C36.5,8,44.6,6.9,50.3,11.1C50.2,11.1,50.2,11.1,50.3,11.1"/>
		<path class="st0" d="M30.1,94.5c4.7,4.9,4.5,12.6-0.4,17.1c-4.9,4.7-12.6,4.5-17.1-0.3c-4.7-4.9-4.5-12.6,0.4-17.1l0,0
			C17.9,89.5,25.4,89.7,30.1,94.5"/>
		<g>
			<path class="st1" d="M137.8,72.7h-11.3c-0.9,0-1.7-0.3-2.4-0.9c-0.7-0.7-1-1.4-1-2.3c0-0.9,0.3-1.7,1-2.4
				c0.7-0.7,1.4-1.1,2.4-1.1h13.6c1.2,0,2.3,0.5,3.1,1.4c0.9,0.9,1.4,1.9,1.4,3.3v25.7c0,0.9-0.2,1.7-0.7,2.4
				c-0.5,0.7-1,1.4-1.9,1.7c-2.3,1-4.9,1.9-7.9,2.4c-3,0.5-5.9,0.9-8.9,0.9c-7.2,0-12.9-2.1-17.1-6.5c-4.4-4.5-6.5-10.1-6.5-17.1
				V56.8c0-7.2,2.1-12.9,6.5-17.1c4.4-4.4,10.1-6.5,17.1-6.5c2.4,0,5.1,0.3,7.9,1c2.8,0.7,5.2,1.7,7.5,3.1c0.5,0.3,0.9,0.7,1.2,1.2
				c0.2,0.5,0.3,1,0.3,1.7c0,0.9-0.3,1.6-0.9,2.3c-0.7,0.7-1.4,0.9-2.3,0.9c-0.7,0-1.2-0.2-1.7-0.3c-1.4-0.7-3.1-1.6-5.4-2.3
				c-2.1-0.9-4.4-1.2-6.5-1.2c-5.2,0-9.3,1.6-12.2,4.5c-3,3.1-4.5,7.3-4.5,12.4v24.1c0,5.2,1.6,9.2,4.5,12.4c3,3,7.2,4.5,12.2,4.5
				c2.1,0,4.4-0.2,6.5-0.5c2.3-0.3,4.2-0.9,6.1-1.6V72.7H137.8z"/>
			<path class="st1" d="M157.5,66.4c0-2.1,0.3-3.8,1-5.6c0.7-1.7,1.6-3.1,2.8-4.2c1.2-1.2,2.4-2.1,4-2.8c1.6-0.7,3.3-1,5.1-1
				c2.3,0,4.5,0.2,7.2,0.7c0.7,0.2,1.4,0.5,1.9,1.2c0.5,0.7,0.7,1.4,0.7,2.1c0,0.9-0.3,1.7-1,2.3c-0.7,0.5-1.4,0.9-2.4,0.9
				c-0.3,0-0.5,0-0.9-0.2c-0.4,0-0.5-0.2-0.9-0.2c-0.7-0.2-1.6-0.2-2.3-0.3c-0.7-0.2-1.6-0.2-2.4-0.2c-1.7,0-3.1,0.5-4.4,1.7
				c-1.2,1.2-1.7,3-1.7,5.1v34.6c0,0.9-0.3,1.7-1,2.4c-0.7,0.7-1.4,1-2.4,1c-0.9,0-1.7-0.4-2.4-1c-0.7-0.7-1-1.4-1-2.4v-34H157.5z"
				/>
			<path class="st1" d="M220.9,97.3c0,1-0.4,1.9-0.9,2.6c-0.5,0.9-1.4,1.4-2.3,1.7c-2.4,0.7-4.7,1.4-7.2,1.7
				c-2.4,0.3-4.9,0.7-7.5,0.7c-5.9,0-10.5-1.4-13.6-4.2c-3-2.6-4.4-6.1-4.4-10.8c0-4.5,1.4-8.2,4.4-10.8c1.6-1.4,3.3-2.4,5.8-3
				c2.3-0.7,4.9-0.9,8-0.9h11.2v-6.1c0-3-0.9-5.2-2.8-6.6c-1.9-1.4-4.4-2.3-7.5-2.3c-1.9,0-3.8,0.4-5.8,0.9
				c-1.9,0.5-3.7,1.4-5.6,2.4c-0.5,0.3-1,0.5-1.6,0.5c-0.9,0-1.7-0.4-2.4-0.9c-0.7-0.5-1-1.4-1-2.3c0-1.2,0.5-2.3,1.7-3
				c2.3-1.4,4.7-2.4,7.2-3c2.4-0.5,4.9-0.9,7.3-0.9c2.3,0,4.5,0.3,6.5,0.9c2.1,0.7,3.8,1.6,5.4,2.8c1.6,1.2,2.8,2.8,3.7,4.7
				c0.9,1.9,1.4,4,1.4,6.5V97.3L220.9,97.3z M214.1,80.2h-11.2c-2.4,0-4.5,0.3-5.9,0.9c-1.6,0.5-2.6,1.2-3.5,2.1
				c-0.9,0.9-1.2,1.7-1.6,2.8c-0.2,1-0.3,2.1-0.3,3c0,0.9,0.2,1.9,0.3,3c0.2,1,0.7,2.1,1.6,3c0.7,0.9,1.9,1.6,3.5,2.1
				c1.6,0.5,3.5,0.9,5.9,0.9c3.8,0,7.5-0.5,11.2-1.7V80.2z"/>
			<path class="st1" d="M233.6,59.6c0-1,0.3-1.9,0.9-2.6c0.5-0.9,1.4-1.4,2.3-1.8c4.7-1.6,9.6-2.4,14.8-2.4c2.6,0,5.1,0.5,7.3,1.4
				c2.3,0.9,4,2.1,5.6,3.7c1.6,1.6,2.8,3.5,3.7,5.6c0.9,2.3,1.2,4.7,1.2,7.3V86c0,2.6-0.3,5.1-1.2,7.3c-0.9,2.3-2.1,4-3.7,5.6
				c-1.6,1.6-3.5,2.8-5.6,3.7c-2.3,0.9-4.7,1.4-7.3,1.4c-2.1,0-4-0.2-5.9-0.9c-1.9-0.5-3.7-1.2-5.4-2.1v20.6c0,0.9-0.3,1.7-1,2.4
				c-0.7,0.7-1.4,1-2.4,1c-0.9,0-1.7-0.4-2.4-1c-0.7-0.7-1-1.4-1-2.4v-62H233.6z M262.8,70.3c0-3.5-1-6.3-3-8.4
				c-1.9-1.9-4.7-3-8.2-3c-3.8,0-7.5,0.5-11.3,1.7v33.2c1.6,1.4,3.3,2.4,5.2,3c1.9,0.5,4,0.9,6.1,0.9c3.5,0,6.3-1.1,8.2-3
				c1.9-1.9,3-4.7,3-8.4V70.3z"/>
			<path class="st1" d="M311.3,70.3c0-3.5-1-6.3-3-8.4c-1.9-1.9-4.7-3-8.2-3c-4.4,0-8.2,1.4-11.3,4.4v37.2c0,0.9-0.3,1.7-1,2.4
				c-0.7,0.7-1.4,1-2.4,1c-0.9,0-1.7-0.4-2.4-1c-0.7-0.7-1-1.4-1-2.4V36.6c0-0.9,0.3-1.7,1-2.4c0.7-0.7,1.4-1,2.4-1
				c0.9,0,1.7,0.4,2.4,1c0.7,0.7,1,1.4,1,2.4v19.2c1.7-0.9,3.5-1.6,5.4-2.1c1.9-0.5,3.8-0.7,5.9-0.7c2.6,0,5.1,0.5,7.3,1.4
				c2.3,0.9,4,2.1,5.6,3.7c1.6,1.6,2.8,3.5,3.7,5.6c0.9,2.3,1.2,4.7,1.2,7.3v29.9c0,0.9-0.3,1.7-1,2.4c-0.7,0.7-1.4,1.1-2.4,1.1
				c-0.9,0-1.7-0.3-2.4-1.1c-0.7-0.7-1-1.4-1-2.4V70.3H311.3z"/>
			<path class="st1" d="M335.4,103.1c-1.4,0-2.4-0.5-3.3-1.4c-0.9-0.9-1.4-1.9-1.4-3.3V38.9c0-1.4,0.5-2.4,1.4-3.3
				c0.9-0.9,1.9-1.4,3.3-1.4h12.9c7.5,0,13.6,2.3,18.3,6.8c2.3,2.3,4,4.9,5.2,7.9c1.2,3,1.7,6.5,1.7,10.1v18.9
				c0,3.7-0.5,7.2-1.7,10.3c-1.2,3.1-2.8,5.8-5.2,8c-4.7,4.5-10.8,6.8-18.3,6.8h-12.9V103.1z M366.8,59.1c0-5.8-1.6-10.1-4.9-13.4
				c-3.3-3.3-7.7-4.9-13.4-4.9h-10.7v55.7h10.7c5.8,0,10.3-1.6,13.4-4.9c3.3-3.3,4.9-7.9,4.9-13.6V59.1z"/>
			<path class="st1" d="M391.1,103.1c-1.4,0-2.4-0.5-3.3-1.4c-0.9-0.9-1.4-1.9-1.4-3.3V38.9c0-1.4,0.5-2.4,1.4-3.3
				c0.9-0.9,1.9-1.4,3.3-1.4h15.2c2.6,0,5.2,0.3,7.3,1.2c2.3,0.9,4.2,2.1,5.8,3.7c1.6,1.6,2.8,3.5,3.8,5.8c0.9,2.3,1.4,4.7,1.4,7.7
				c0,3-0.7,5.8-2.1,8.2c-1.4,2.4-3.3,4.7-5.8,6.3c3,1.7,5.4,4,7.2,6.8c1.7,2.8,2.8,6.1,2.8,9.6c0,3-0.5,5.8-1.4,8.2
				c-0.9,2.4-2.3,4.5-4,6.1c-1.7,1.7-3.8,3-6.3,3.8c-2.4,0.9-5.1,1.4-8,1.4h-15.9V103.1z M404.5,64c1.7,0,3.5-0.3,5.2-0.9
				c1.7-0.5,3-1.4,4.2-2.4c1.2-1,2.1-2.3,2.8-3.7c0.7-1.4,1-3,1-4.5c0-3.7-1-6.6-3-8.7c-1.9-2.1-4.9-3-8.6-3h-12.9V64H404.5
				L404.5,64z M406.8,96.5c3.8,0,7-1,9.3-3.1c2.3-2.1,3.5-5.4,3.5-9.8c0-1.7-0.4-3.5-1-5.1c-0.7-1.6-1.7-3-3-4.2
				c-1.2-1.2-2.8-2.1-4.5-2.8c-1.7-0.7-3.7-1-5.8-1h-12v25.8h13.6V96.5z"/>
		</g>
	</g>
</g>
</svg>
