<svg width="20" height="80" viewBox="0 0 20 80" fill="none" xmlns="http://www.w3.org/2000/svg">
<path d="M0 70.4761C0 75.7459 4.42676 80 9.91083 80C15.3949 80 19.8217 75.7461 19.8217 70.4761C19.8217 66.349 17.0466 62.7935 13.2144 61.5236V18.4764C17.0466 17.1431 19.8217 13.651 19.8217 9.52388C19.8217 4.25407 15.3949 0 9.91083 0C4.42676 0 0 4.25393 0 9.52388C0 13.651 2.77503 17.2065 6.60722 18.4764V61.4612C2.77503 62.7945 0 66.3502 0 70.4771V70.4761ZM9.91083 6.34795C11.7608 6.34795 13.2144 7.74478 13.2144 9.52257C13.2144 11.3004 11.7608 12.6972 9.91083 12.6972C8.06081 12.6972 6.60722 11.3004 6.60722 9.52257C6.60722 7.74478 8.06081 6.34795 9.91083 6.34795ZM9.91083 67.3008C11.7608 67.3008 13.2144 68.6976 13.2144 70.4754C13.2144 72.2532 11.7608 73.65 9.91083 73.65C8.06081 73.65 6.60722 72.2532 6.60722 70.4754C6.60722 68.6976 8.06081 67.3008 9.91083 67.3008Z" fill="#FFFFFF"/>
</svg>
